<?xml version="1.0" encoding="utf-8"?>
<!-- Generator: Adobe Illustrator 16.0.0, SVG Export Plug-In . SVG Version: 6.00 Build 0)  -->
<!DOCTYPE svg PUBLIC "-//W3C//DTD SVG 1.1//EN" "http://www.w3.org/Graphics/SVG/1.1/DTD/svg11.dtd">
<svg version="1.1" id="Layer_1" xmlns="http://www.w3.org/2000/svg" xmlns:xlink="http://www.w3.org/1999/xlink" x="0px" y="0px"
	 width="24px" height="24px" viewBox="0 0 24 24" enable-background="new 0 0 24 24" xml:space="preserve">
<g>
	<rect width="1" height="8"/>
	<rect width="8" height="1"/>
	<rect x="4.442" y="-1.547" transform="matrix(-0.7071 0.7071 -0.7071 -0.7071 11.9318 4.942)" width="1" height="12.979"/>
</g>
<g>
	<rect x="16" width="8" height="1"/>
	<rect x="23" width="1" height="8"/>
	<rect x="18.558" y="-1.547" transform="matrix(-0.7071 -0.7071 0.7071 -0.7071 29.0386 21.9129)" width="1" height="12.979"/>
</g>
<g>
	<rect x="23" y="16" width="1" height="8"/>
	<rect x="16" y="23" width="8" height="1"/>
	<rect x="18.558" y="12.568" transform="matrix(0.7071 -0.7071 0.7071 0.7071 -7.8939 19.0576)" width="1" height="12.979"/>
</g>
<g>
	<rect y="23" width="8" height="1"/>
	<rect y="16" width="1" height="8"/>
	<rect x="4.442" y="12.568" transform="matrix(0.7071 0.7071 -0.7071 0.7071 14.9234 2.0871)" width="1" height="12.979"/>
</g>
</svg>
