<?xml version="1.0" encoding="utf-8"?>
<!-- Generator: Adobe Illustrator 16.0.0, SVG Export Plug-In . SVG Version: 6.00 Build 0)  -->
<!DOCTYPE svg PUBLIC "-//W3C//DTD SVG 1.1//EN" "http://www.w3.org/Graphics/SVG/1.1/DTD/svg11.dtd">
<svg version="1.1" id="Layer_1" xmlns="http://www.w3.org/2000/svg" xmlns:xlink="http://www.w3.org/1999/xlink" x="0px" y="0px"
	 width="4.06px" height="3.306px" viewBox="0.95 0.835 4.06 3.306" enable-background="new 0.95 0.835 4.06 3.306"
	 xml:space="preserve">
<g>
	<g>
		<path fill="#040305" d="M5.01,1.23c-0.15,0.065-0.31,0.11-0.48,0.13C4.7,1.255,4.835,1.095,4.895,0.9
			c-0.16,0.095-0.34,0.165-0.529,0.2c-0.15-0.16-0.37-0.265-0.61-0.265c-0.46,0-0.835,0.375-0.835,0.835
			c0,0.065,0.005,0.13,0.02,0.19C2.25,1.825,1.635,1.495,1.225,0.99C1.155,1.115,1.11,1.255,1.11,1.41
			c0,0.29,0.145,0.545,0.37,0.695C1.345,2.1,1.215,2.065,1.105,2v0.01c0,0.405,0.285,0.74,0.67,0.815
			c-0.07,0.02-0.145,0.03-0.22,0.03C1.5,2.855,1.45,2.85,1.4,2.84c0.105,0.33,0.415,0.57,0.78,0.58C1.9,3.641,1.54,3.775,1.15,3.775
			c-0.065,0-0.135-0.006-0.2-0.01C1.32,4,1.755,4.141,2.225,4.141C3.76,4.141,4.6,2.87,4.6,1.77L4.596,1.66
			C4.76,1.545,4.9,1.395,5.01,1.23z"/>
	</g>
</g>
</svg>
