<?xml version="1.0" encoding="utf-8"?>
<!-- Generator: Adobe Illustrator 16.0.0, SVG Export Plug-In . SVG Version: 6.00 Build 0)  -->
<!DOCTYPE svg PUBLIC "-//W3C//DTD SVG 1.1//EN" "http://www.w3.org/Graphics/SVG/1.1/DTD/svg11.dtd">
<svg version="1.1" id="Layer_1" xmlns="http://www.w3.org/2000/svg" xmlns:xlink="http://www.w3.org/1999/xlink" x="0px" y="0px"
	 width="229.954px" height="189.817px" viewBox="0 0 229.954 189.817" enable-background="new 0 0 229.954 189.817"
	 xml:space="preserve">
<g>
	<defs>
		<rect id="SVGID_1_" width="229.954" height="189.817"/>
	</defs>
	<clipPath id="SVGID_2_">
		<use xlink:href="#SVGID_1_"  overflow="visible"/>
	</clipPath>
	<path clip-path="url(#SVGID_2_)" fill="#C91F4A" d="M229.936,152.006c-0.188-1.731-1.744-2.98-3.475-2.791
		c-5.557,0.607-10.861,1.538-16.225,2.738c-1.519,0.346-3.032,0.723-4.544,1.117c2.192-4.674,4.134-9.464,5.799-14.363
		c1.756-5.154,3.2-10.428,4.244-15.821c1.021-5.396,1.624-10.935,1.308-16.579c-0.344-5.59-1.525-11.516-5.017-16.59
		c-0.876-1.26-1.841-2.413-2.998-3.514c-1.075-1.017-2.32-1.999-3.639-2.807c-2.647-1.644-5.698-2.674-8.752-3.062
		c-6.167-0.771-12.055,0.714-17.345,2.786c-1.423,0.571-2.809,1.199-4.168,1.864c1.133-4.708,2.06-9.481,2.661-14.344
		c0.637-5.467,0.924-11.06,0.098-16.771c-0.423-2.85-1.136-5.747-2.483-8.537c-0.678-1.393-1.485-2.737-2.562-4.015
		c-0.989-1.175-2.075-2.234-3.284-3.206c-2.404-1.943-5.287-3.392-8.302-4.153c-3.018-0.78-6.111-0.903-9.068-0.628
		c-5.94,0.579-11.37,2.592-16.421,5.007c-8.633,4.23-16.321,9.721-23.56,15.646c0.45-3.185,0.81-6.39,1.034-9.622
		c0.342-5.495,0.295-11.077-0.597-16.672c-0.908-5.551-2.686-11.274-6.379-16.108c-0.91-1.184-1.975-2.338-3.092-3.335
		c-1.08-0.965-2.224-1.874-3.427-2.71c-2.403-1.675-5.067-3.047-7.892-3.978c-2.818-0.953-5.785-1.463-8.735-1.546
		c-2.951-0.082-5.874,0.241-8.703,0.818C63.075,3.353,53.4,9.413,44.656,16.065c-8.761,6.722-16.67,14.357-23.971,22.468
		c-3.671,4.042-7.151,8.242-10.5,12.541c-3.337,4.333-6.493,8.702-9.444,13.439c-1.352,2.182-0.815,5.084,1.296,6.613
		c2.211,1.6,5.3,1.105,6.899-1.105l0.062-0.086c12.211-16.87,25.065-33.979,40.611-47.815c3.897-3.437,8.03-6.571,12.376-9.269
		c2.177-1.338,4.412-2.559,6.706-3.606c2.301-1.026,4.667-1.855,7.062-2.442c4.785-1.2,9.742-1.194,14.276,0.269
		c2.262,0.747,4.41,1.848,6.399,3.233c0.995,0.691,1.953,1.452,2.87,2.27c0.879,0.788,1.635,1.612,2.359,2.547
		c2.859,3.717,4.448,8.528,5.249,13.495c0.799,4.991,0.86,10.187,0.533,15.373c-0.343,5.334-1.11,10.662-2.16,15.955
		c-7.022,6.28-13.667,12.927-20.005,19.834c-14.547,16.075-27.832,33.245-39.263,51.732c-5.654,9.284-10.939,18.825-15.092,29.151
		c-1.025,2.593-1.971,5.239-2.749,8.01c-0.763,2.777-1.415,5.644-1.536,8.883c-0.04,1.625,0.037,3.367,0.614,5.297
		c0.292,0.958,0.73,1.973,1.403,2.938c0.66,0.968,1.58,1.853,2.603,2.497c0.497,0.311,1.046,0.586,1.654,0.82l0.236,0.085
		c0.295,0.106,0.299,0.098,0.464,0.151c0.252,0.079,0.509,0.142,0.764,0.2c1.028,0.229,2.06,0.304,3.038,0.261
		c1.968-0.087,3.695-0.602,5.233-1.231c3.067-1.295,5.507-3.062,7.757-4.913c2.24-1.862,4.251-3.86,6.153-5.918
		c3.793-4.123,7.145-8.491,10.297-12.965c6.278-8.961,11.733-18.358,16.733-27.967c4.984-9.616,9.477-19.466,13.484-29.516
		c4.015-10.045,7.558-20.289,10.406-30.763c0.931-3.456,1.782-6.94,2.546-10.448c1.192-1.123,2.375-2.257,3.592-3.352
		c7.816-6.989,16.129-13.531,25.209-18.234c4.528-2.309,9.291-4.136,14.033-4.699c4.731-0.586,9.331,0.334,12.913,3.132
		c0.895,0.684,1.756,1.482,2.509,2.339c0.669,0.754,1.287,1.703,1.801,2.704c1.039,2.015,1.705,4.359,2.118,6.791
		c0.807,4.892,0.665,10.103,0.149,15.265c-0.66,6.148-1.854,12.281-3.393,18.353c-1.503,0.913-2.985,1.852-4.43,2.834
		c-9.175,6.292-17.205,13.872-24.514,22.012c-7.286,8.177-13.52,17.231-18.819,26.819c-2.619,4.817-5.071,9.732-7.048,14.943
		c-0.959,2.616-1.829,5.301-2.334,8.176c-0.244,1.438-0.403,2.927-0.34,4.496c0.057,1.555,0.344,3.244,1.189,4.87
		c0.436,0.817,0.974,1.554,1.734,2.239c0.715,0.635,1.436,1.076,2.293,1.453c1.697,0.744,3.618,0.813,5.25,0.496
		c3.301-0.688,5.783-2.412,8.015-4.179c4.405-3.644,7.891-7.91,11.159-12.284c6.454-8.812,11.746-18.286,16.541-27.973
		c4.763-9.705,8.929-19.696,12.41-29.952c0.793-2.363,1.554-4.74,2.28-7.13c3.127-2.12,6.366-4.019,9.725-5.526
		c4.522-2.053,9.344-3.422,13.898-3.065c2.266,0.179,4.448,0.777,6.396,1.897c0.985,0.555,1.883,1.201,2.786,1.986
		c0.814,0.714,1.619,1.586,2.308,2.498c2.78,3.707,4.181,8.623,4.557,13.653c0.386,5.054-0.061,10.259-0.932,15.394
		c-0.873,5.145-2.232,10.235-3.856,15.241c-1.627,5.011-3.585,9.919-5.719,14.745c-0.391,0.875-0.798,1.742-1.206,2.608
		c-1.969,0.621-3.93,1.279-5.871,2.028c-2.588,1.004-5.146,2.139-7.64,3.469c-2.483,1.297-4.946,2.935-7.167,4.614
		c-2.271,1.684-4.374,3.661-6.225,6.021c-0.927,1.178-1.773,2.475-2.451,3.969c-0.645,1.494-1.214,3.238-0.939,5.348
		c0.146,1.037,0.577,2.146,1.302,3.03c0.719,0.892,1.665,1.51,2.595,1.872c1.885,0.719,3.661,0.608,5.244,0.312
		c3.186-0.642,5.8-2.253,8.057-4.112c2.279-1.9,3.973-4.123,5.657-6.31c1.642-2.219,3.193-4.471,4.657-6.772
		c1.556-2.487,3.028-5.023,4.424-7.595c3.163-0.975,6.383-1.815,9.64-2.527c5.096-1.104,10.364-1.975,15.461-2.49l0.101-0.011
		c0.003-0.001,0.004-0.001,0.007-0.001C228.876,155.292,230.125,153.735,229.936,152.006 M77.451,133.571
		c-5.028,9.313-10.501,18.396-16.65,26.887c-3.08,4.232-6.334,8.326-9.854,12.033c-1.761,1.846-3.591,3.599-5.494,5.13
		c-1.892,1.523-3.899,2.854-5.794,3.605c-0.938,0.369-1.834,0.579-2.548,0.591c-0.359,0.008-0.672-0.027-0.951-0.096
		c-0.069-0.02-0.139-0.035-0.204-0.059c0.002,0-0.017-0.007-0.036-0.012l-0.213-0.081c-0.012-0.017-0.065-0.039-0.135-0.084
		c-0.177-0.138-0.343-0.298-0.548-0.968c-0.187-0.641-0.267-1.611-0.211-2.656c0.106-2.119,0.647-4.517,1.351-6.881
		c0.711-2.375,1.607-4.763,2.592-7.135c4.006-9.495,9.281-18.686,14.861-27.617c5.59-8.951,11.632-17.654,17.917-26.175
		c6.307-8.506,12.954-16.77,19.956-24.698c3.369-3.835,6.825-7.595,10.371-11.255c-0.075,0.27-0.146,0.543-0.222,0.813
		C95.809,95.24,87.449,114.911,77.451,133.571 M153.474,130.261c-4.603,9.545-9.783,18.86-15.938,27.381
		c-3.092,4.216-6.447,8.318-10.354,11.462c-1.928,1.544-4.076,2.857-6.065,3.227c-0.986,0.181-1.864,0.109-2.622-0.253
		c-0.364-0.165-0.791-0.445-1.062-0.718c-0.227-0.22-0.498-0.574-0.675-0.947c-0.78-1.547-0.7-4.026-0.231-6.382
		c0.477-2.394,1.288-4.822,2.298-7.182c1.999-4.739,4.659-9.281,7.592-13.615c5.889-8.683,12.736-16.705,19.737-24.477
		c6.025-6.633,12.449-12.919,19.357-18.471c-0.053,0.161-0.101,0.324-0.152,0.483C162.051,110.832,158.055,120.693,153.474,130.261
		 M189.797,172.532c-1.589,2.039-3.371,3.943-5.227,5.459c-1.866,1.52-4.062,2.65-6.176,2.956c-1.04,0.152-2.053,0.021-2.656-0.298
		c-0.608-0.354-0.699-0.61-0.746-1.166c-0.03-0.576,0.243-1.497,0.757-2.392c0.511-0.909,1.215-1.819,2.002-2.694
		c1.587-1.754,3.54-3.328,5.502-4.912c3.864-3.074,8.338-5.238,13.071-7.068c-0.683,1.227-1.384,2.44-2.111,3.637
		C192.852,168.3,191.409,170.497,189.797,172.532"/>
</g>
</svg>
